<svg width="152" height="73" viewBox="0 0 152 73" fill="none" xmlns="http://www.w3.org/2000/svg">
<g filter="url(#filter0_d_260_28)">
<path d="M20.6862 4.32131C21.4263 2.89512 22.8993 2 24.5061 2H126.05C127.562 2 128.964 2.79443 129.742 4.09238L143.449 26.9801C144.233 28.2889 144.265 29.9149 143.534 31.2538L129.712 56.5661C128.958 57.9477 127.509 58.8071 125.935 58.8071H24.4813C22.8875 58.8071 21.4243 57.9264 20.6783 56.518L8.05616 32.6888C7.39475 31.4401 7.38845 29.9463 8.0393 28.6921L20.6862 4.32131Z" fill="url(#paint0_linear_260_28)"/>
<path d="M24.5059 3.57129H126.05C126.95 3.57139 127.789 4.01455 128.297 4.74902L128.394 4.89941L142.102 27.7871C142.568 28.5663 142.615 29.5228 142.236 30.3398L142.155 30.501L128.333 55.8135C127.854 56.6904 126.934 57.2363 125.935 57.2363H24.4814C23.4696 57.2363 22.54 56.6764 22.0664 55.7822L9.44434 31.9531C9.05074 31.2098 9.02268 30.3296 9.36133 29.5664L9.43359 29.416L22.0811 5.04492C22.5509 4.1396 23.4859 3.57136 24.5059 3.57129Z" stroke="url(#paint1_linear_260_28)" stroke-width="3.14247"/>
</g>
<defs>
<filter id="filter0_d_260_28" x="0.223225" y="0.952508" width="151.17" height="71.472" filterUnits="userSpaceOnUse" color-interpolation-filters="sRGB">
<feFlood flood-opacity="0" result="BackgroundImageFix"/>
<feColorMatrix in="SourceAlpha" type="matrix" values="0 0 0 0 0 0 0 0 0 0 0 0 0 0 0 0 0 0 127 0" result="hardAlpha"/>
<feOffset dy="6.28495"/>
<feGaussianBlur stdDeviation="3.66622"/>
<feComposite in2="hardAlpha" operator="out"/>
<feColorMatrix type="matrix" values="0 0 0 0 0 0 0 0 0 0 0 0 0 0 0 0 0 0 0.25 0"/>
<feBlend mode="normal" in2="BackgroundImageFix" result="effect1_dropShadow_260_28"/>
<feBlend mode="normal" in="SourceGraphic" in2="effect1_dropShadow_260_28" result="shape"/>
</filter>
<linearGradient id="paint0_linear_260_28" x1="75.8571" y1="2" x2="76.0171" y2="53.709" gradientUnits="userSpaceOnUse">
<stop stop-color="#C8F170"/>
<stop offset="1" stop-color="#55D349"/>
</linearGradient>
<linearGradient id="paint1_linear_260_28" x1="75.8571" y1="2" x2="75.8571" y2="58.8071" gradientUnits="userSpaceOnUse">
<stop stop-color="#7A7369"/>
<stop offset="0.510417" stop-color="#EAC48B"/>
<stop offset="1" stop-color="#7A6969"/>
</linearGradient>
</defs>
</svg>
