<svg width="20" height="20" viewBox="0 0 20 20" fill="none" xmlns="http://www.w3.org/2000/svg">
<path d="M5.70692 15.707C5.51832 15.8891 5.26571 15.9899 5.00352 15.9876C4.74132 15.9854 4.49051 15.8802 4.3051 15.6948C4.11969 15.5094 4.01452 15.2586 4.01224 14.9964C4.00997 14.7342 4.11076 14.4816 4.29292 14.293L8.29292 10.293C8.38517 10.1974 8.49551 10.1213 8.61751 10.0689C8.73952 10.0164 8.87074 9.98886 9.00352 9.98771C9.1363 9.98655 9.26798 10.0119 9.39087 10.0621C9.51377 10.1124 9.62542 10.1867 9.71931 10.2806C9.81321 10.3745 9.88746 10.4861 9.93774 10.609C9.98802 10.7319 10.0133 10.8636 10.0122 10.9964C10.011 11.1291 9.98343 11.2604 9.93102 11.3824C9.87861 11.5044 9.80243 11.6147 9.70692 11.707L5.70692 15.707Z" fill="black"/>
<path d="M5 16C4.73478 16 4.48043 15.8946 4.29289 15.7071C4.10536 15.5196 4 15.2652 4 15C4 14.7348 4.10536 14.4804 4.29289 14.2929C4.48043 14.1054 4.73478 14 5 14H9C9.26522 14 9.51957 14.1054 9.70711 14.2929C9.89464 14.4804 10 14.7348 10 15C10 15.2652 9.89464 15.5196 9.70711 15.7071C9.51957 15.8946 9.26522 16 9 16H5Z" fill="black"/>
<path d="M6 15C6 15.2652 5.89464 15.5195 5.70711 15.7071C5.51957 15.8946 5.26522 16 5 16C4.73478 16 4.48043 15.8946 4.29289 15.7071C4.10536 15.5195 4 15.2652 4 15V11C4 10.7347 4.10536 10.4804 4.29289 10.2929C4.48043 10.1053 4.73478 9.99996 5 9.99996C5.26522 9.99996 5.51957 10.1053 5.70711 10.2929C5.89464 10.4804 6 10.7347 6 11V15ZM11.707 9.70696C11.5184 9.88912 11.2658 9.98991 11.0036 9.98763C10.7414 9.98535 10.4906 9.88019 10.3052 9.69478C10.1198 9.50937 10.0146 9.25856 10.0123 8.99636C10.01 8.73416 10.1108 8.48156 10.293 8.29296L14.293 4.29296C14.3852 4.19745 14.4956 4.12127 14.6176 4.06886C14.7396 4.01645 14.8708 3.98886 15.0036 3.98771C15.1364 3.98655 15.2681 4.01186 15.391 4.06214C15.5139 4.11242 15.6255 4.18667 15.7194 4.28056C15.8133 4.37446 15.8875 4.48611 15.9378 4.60901C15.9881 4.7319 16.0134 4.86358 16.0123 4.99636C16.0111 5.12914 15.9835 5.26036 15.9311 5.38236C15.8787 5.50437 15.8025 5.61471 15.707 5.70696L11.707 9.70696Z" fill="black"/>
<path d="M16 9C16 9.26522 15.8946 9.51957 15.7071 9.70711C15.5196 9.89464 15.2652 10 15 10C14.7348 10 14.4804 9.89464 14.2929 9.70711C14.1054 9.51957 14 9.26522 14 9V5C14 4.73478 14.1054 4.48043 14.2929 4.29289C14.4804 4.10536 14.7348 4 15 4C15.2652 4 15.5196 4.10536 15.7071 4.29289C15.8946 4.48043 16 4.73478 16 5V9Z" fill="black"/>
<path d="M11 6C10.7348 6 10.4804 5.89464 10.2929 5.70711C10.1054 5.51957 10 5.26522 10 5C10 4.73478 10.1054 4.48043 10.2929 4.29289C10.4804 4.10536 10.7348 4 11 4H15C15.2652 4 15.5196 4.10536 15.7071 4.29289C15.8946 4.48043 16 4.73478 16 5C16 5.26522 15.8946 5.51957 15.7071 5.70711C15.5196 5.89464 15.2652 6 15 6H11Z" fill="black"/>
</svg>
