<svg width="24" height="18" viewBox="0 0 24 18" fill="none" xmlns="http://www.w3.org/2000/svg">
<path d="M23.7912 9.45453C23.7009 9.29567 23.5798 9.15638 23.4351 9.04479C23.2903 8.93319 23.1249 8.85152 22.9482 8.80453C22.1472 8.59966 21.3173 8.53099 20.4935 8.6014C20.9678 6.50617 20.658 4.85273 20.3462 3.8889C20.2374 3.54841 20.0057 3.26065 19.6963 3.08171C19.3868 2.90277 19.0218 2.84548 18.6725 2.92101C17.588 3.16422 16.5614 3.61648 15.65 4.2525C15.0157 2.87266 14.0567 1.66694 12.855 0.738432C12.6084 0.552638 12.308 0.452148 11.9993 0.452148C11.6906 0.452148 11.3902 0.552638 11.1436 0.738432C9.94257 1.66735 8.98399 2.87298 8.34965 4.2525C7.43794 3.61636 6.41094 3.16409 5.32614 2.92101C4.97676 2.84557 4.61181 2.90304 4.30252 3.08219C3.99323 3.26134 3.7618 3.54932 3.6534 3.88992C3.34161 4.85374 3.03184 6.50718 3.50614 8.60242C2.68228 8.53201 1.85245 8.60067 1.05137 8.80554C0.874763 8.85254 0.709273 8.93421 0.564548 9.04581C0.419822 9.1574 0.298755 9.29668 0.208402 9.45554C0.113446 9.6188 0.0519665 9.79934 0.0275536 9.98663C0.00314067 10.1739 0.0162835 10.3642 0.0662148 10.5463C0.402387 11.7935 1.43731 14.164 4.57762 16.0439C7.71793 17.9238 10.5058 17.9218 11.9998 17.9218C13.4938 17.9218 16.2776 17.9218 19.42 16.0439C22.5623 14.166 23.5952 11.7935 23.9314 10.5453C23.9816 10.3633 23.9951 10.1731 23.971 9.98582C23.947 9.79854 23.8858 9.61793 23.7912 9.45453ZM16.1111 5.41945C16.9473 4.78891 17.9074 4.34241 18.9284 4.10929C18.9826 4.09822 19.039 4.10768 19.0867 4.13582C19.1344 4.16397 19.1699 4.2088 19.1864 4.26164C19.5865 5.50273 19.9796 8.07023 18.1108 11.3202C17.3606 12.6021 16.3991 13.7479 15.2671 14.7094C16.0471 13.3515 16.6717 11.5162 16.6717 9.10312C16.6812 7.85328 16.492 6.60987 16.1111 5.41945ZM4.81325 4.26468C4.82913 4.21128 4.86439 4.16574 4.91212 4.137C4.95984 4.10825 5.01658 4.09837 5.07122 4.10929C6.09223 4.34241 7.05236 4.78891 7.88856 5.41945C7.50763 6.60987 7.3184 7.85328 7.32793 9.10312C7.32793 11.5162 7.95254 13.3535 8.73051 14.7063C7.59817 13.7451 6.63667 12.5993 5.88676 11.3172C4.02004 8.07023 4.41309 5.50273 4.81325 4.26468ZM5.20325 14.9968C2.43059 13.3403 1.53176 11.2979 1.24231 10.2234C1.23472 10.1961 1.23269 10.1675 1.23636 10.1394C1.24002 10.1113 1.2493 10.0843 1.26364 10.0598C1.28561 10.0206 1.32205 9.9914 1.3652 9.97859C2.18603 9.77473 3.03943 9.73778 3.87481 9.86992C4.13237 10.5835 4.45288 11.2728 4.83254 11.9296C5.87454 13.7278 7.29545 15.2776 8.99661 16.4715C7.65547 16.2061 6.37146 15.7069 5.20325 14.9968ZM11.9998 16.5873C11.1182 15.9576 8.54668 13.7232 8.54668 9.10312C8.54668 4.69937 10.8765 2.46703 11.8779 1.7114C11.9131 1.68503 11.9559 1.67078 11.9998 1.67078C12.0438 1.67078 12.0865 1.68503 12.1217 1.7114C13.1231 2.46703 15.4529 4.69937 15.4529 9.10312C15.4529 13.7516 12.8946 15.9586 11.9998 16.5873ZM22.7553 10.2274C22.4658 11.2979 21.567 13.3403 18.7943 15.0009C17.6248 15.7096 16.3398 16.207 14.9979 16.4705C16.6991 15.2766 18.12 13.7268 19.162 11.9286C19.5434 11.2723 19.8656 10.5833 20.1248 9.86992C20.9611 9.73883 21.8152 9.77717 22.6364 9.98265C22.6796 9.99546 22.716 10.0246 22.738 10.0639C22.752 10.0885 22.7609 10.1156 22.7642 10.1437C22.7676 10.1718 22.7652 10.2003 22.7573 10.2274H22.7553Z" fill="#0B0B0B"/>
</svg>
