<svg width="24" height="24" viewBox="0 0 24 24" fill="none" xmlns="http://www.w3.org/2000/svg">
<path d="M20.9508 9.55396L16.0488 14.456M16.0488 9.55396L20.9508 14.456" stroke="black" stroke-width="1.5" stroke-miterlimit="10" stroke-linecap="round"/>
<path d="M3.04892 14.088V9.91201C3.04892 9.49601 3.19092 9.09801 3.44392 8.80401C3.69692 8.51101 4.04092 8.34601 4.39892 8.34601H6.28892C6.52492 8.34501 6.75792 8.27301 6.96392 8.13601L10.9329 5.50601C11.1379 5.37101 11.3699 5.30101 11.6049 5.30201C11.8399 5.30301 12.0719 5.37601 12.2759 5.51401C12.4799 5.65101 12.6499 5.84801 12.7679 6.08401C12.8859 6.32101 12.9479 6.59001 12.9479 6.86401V17.137C12.9479 17.41 12.8859 17.679 12.7679 17.915C12.6552 18.1441 12.4858 18.3407 12.2759 18.486C12.0729 18.623 11.8409 18.696 11.6059 18.698C11.3662 18.6987 11.1318 18.6277 10.9329 18.494L6.96292 15.863C6.76349 15.729 6.52917 15.6564 6.28892 15.654H4.39892C4.04092 15.654 3.69692 15.489 3.44392 15.195C3.18482 14.8847 3.04478 14.4922 3.04892 14.088Z" stroke="black" stroke-width="1.5" stroke-linecap="round" stroke-linejoin="round"/>
</svg>
