<svg width="24" height="24" viewBox="0 0 24 24" fill="none" xmlns="http://www.w3.org/2000/svg">
<path d="M6.3948 7.70509C7.12987 6.9676 8.00349 6.38271 8.9654 5.98405C9.92731 5.58538 10.9585 5.3808 11.9998 5.38209C14.1026 5.38235 16.1192 6.21781 17.6062 7.70473C19.0931 9.19165 19.9285 11.2083 19.9288 13.3111C19.9285 15.4148 19.0934 17.4325 17.6068 18.921C16.1201 20.4095 14.1035 21.2472 11.9998 21.2501C9.89589 21.2472 7.87914 20.4094 6.39248 18.9206C4.90582 17.4319 4.0708 15.414 4.0708 13.3101" stroke="#55D349" stroke-width="1.5" stroke-miterlimit="10" stroke-linecap="round"/>
<path d="M7.12003 2.75L6.17003 6.608C6.08571 6.94997 6.14048 7.31143 6.32233 7.61307C6.50417 7.91471 6.79824 8.13191 7.14003 8.217L11.009 9.165" stroke="#55D349" stroke-width="1.5" stroke-linecap="round" stroke-linejoin="round"/>
</svg>
