<svg width="16" height="16" viewBox="0 0 16 16" fill="none" xmlns="http://www.w3.org/2000/svg">
<g clip-path="url(#clip0_272_158)">
<path fill-rule="evenodd" clip-rule="evenodd" d="M9.00005 3.00005C9.00056 2.81602 8.95022 2.63542 8.85459 2.47819C8.75896 2.32095 8.62176 2.19318 8.45812 2.10898C8.29448 2.02478 8.11076 1.98742 7.92723 2.00102C7.7437 2.01462 7.56749 2.07865 7.41805 2.18605L4.87805 3.99605H2.49805C1.83501 3.99605 1.19912 4.25945 0.73028 4.72829C0.261439 5.19713 -0.00195312 5.83301 -0.00195312 6.49605V9.49605C-0.00195312 10.1591 0.261439 10.795 0.73028 11.2638C1.19912 11.7327 1.83501 11.9961 2.49805 11.9961H4.87805L7.41805 13.8061C7.5676 13.9127 7.7436 13.976 7.92677 13.9893C8.10995 14.0026 8.29324 13.9652 8.45659 13.8812C8.61993 13.7973 8.75704 13.67 8.85289 13.5134C8.94875 13.3567 8.99966 13.1767 9.00005 12.9931V2.99305V3.00005ZM2.50005 5.00005H4.88005C5.08836 5.00008 5.29148 4.93505 5.46105 4.81405L8.00105 3.00405V13.0041L5.46105 11.1941C5.29148 11.0731 5.08836 11.008 4.88005 11.0081H2.50005C2.10222 11.0081 1.72069 10.85 1.43939 10.5687C1.15808 10.2874 1.00005 9.90588 1.00005 9.50805V6.50805C1.00005 6.11023 1.15808 5.7287 1.43939 5.44739C1.72069 5.16609 2.10222 5.00805 2.50005 5.00805V5.00005Z" fill="#55D349"/>
<path d="M11.4999 2.3399C11.5273 2.28021 11.5662 2.22649 11.6143 2.18183C11.6625 2.13716 11.7189 2.10241 11.7805 2.07957C11.8421 2.05672 11.9075 2.04623 11.9731 2.04869C12.0388 2.05115 12.1033 2.06651 12.1629 2.0939C13.2934 2.61379 14.2512 3.44677 14.9229 4.49419C15.5946 5.54162 15.9521 6.7596 15.9529 8.0039C15.9529 9.2439 15.5969 10.4639 14.9229 11.5139C14.2516 12.5616 13.2937 13.3946 12.1629 13.9139C12.0424 13.9692 11.9048 13.9743 11.7805 13.9282C11.6562 13.8821 11.5552 13.7884 11.4999 13.6679C11.4446 13.5474 11.4395 13.4098 11.4856 13.2854C11.5318 13.1611 11.6254 13.0602 11.7459 13.0049C12.7038 12.5697 13.5136 11.8641 14.0759 10.9749C14.6431 10.088 14.9443 9.05729 14.9439 8.0046C14.9436 6.95192 14.6417 5.92137 14.0739 5.0349C13.5045 4.148 12.6923 3.44339 11.7339 3.0049C11.6743 2.97752 11.6205 2.93865 11.5759 2.89052C11.5312 2.84238 11.4965 2.78592 11.4736 2.72435C11.4508 2.66278 11.4403 2.59732 11.4427 2.5317C11.4452 2.46608 11.4606 2.40158 11.4879 2.3419L11.4999 2.3399Z" fill="#55D349"/>
<path d="M10.6002 5.14989C10.6665 5.03505 10.7758 4.95126 10.9038 4.91694C11.0319 4.88262 11.1684 4.90059 11.2832 4.96689C11.8155 5.27355 12.2575 5.71495 12.565 6.2467C12.8725 6.77844 13.0345 7.38178 13.0349 7.99602C13.0352 8.61027 12.8737 9.21376 12.5668 9.74581C12.2598 10.2779 11.8181 10.7197 11.2862 11.0269C11.1718 11.089 11.0377 11.104 10.9123 11.0687C10.787 11.0334 10.6804 10.9507 10.6151 10.838C10.5499 10.7253 10.5311 10.5917 10.5629 10.4654C10.5947 10.3391 10.6744 10.2303 10.7852 10.1619C11.1647 9.94209 11.4797 9.62635 11.6986 9.24634C11.9175 8.86633 12.0325 8.43543 12.0322 7.99689C12.0319 7.55813 11.9162 7.12717 11.6966 6.74732C11.477 6.36747 11.1613 6.05209 10.7812 5.83289C10.6664 5.76658 10.5826 5.65737 10.5483 5.52929C10.514 5.4012 10.5319 5.26473 10.5982 5.14989H10.6002Z" fill="#55D349"/>
</g>
<defs>
<clipPath id="clip0_272_158">
<rect width="16" height="16" fill="white"/>
</clipPath>
</defs>
</svg>
